<svg version="1.1" xmlns="http://www.w3.org/2000/svg" viewBox="0 0 965.9826064827878 553.0523406755179" width="965.9826064827878" height="553.0523406755179">
  <!-- svg-source:excalidraw -->
  
  <defs>
    <style class="style-fonts">
      @font-face {
        font-family: "Virgil";
        src: url("https://excalidraw.com/Virgil.woff2");
      }
      @font-face {
        font-family: "Cascadia";
        src: url("https://excalidraw.com/Cascadia.woff2");
      }
    </style>
  </defs>
  <rect x="0" y="0" width="965.9826064827878" height="553.0523406755179" fill="#ffffff"></rect><g transform="translate(10 405.76108959869293) rotate(0 127.45833587646484 54.31065289110251)"><text x="127.45833587646484" y="0" font-family="Virgil, Segoe UI Emoji" font-size="43.448522312882005px" fill="#0b7285" text-anchor="middle" style="white-space: pre;" direction="ltr" dominant-baseline="text-before-edge">fulcrum</text><text x="127.45833587646484" y="54.31065289110251" font-family="Virgil, Segoe UI Emoji" font-size="43.448522312882005px" fill="#0b7285" text-anchor="middle" style="white-space: pre;" direction="ltr" dominant-baseline="text-before-edge">(elbow joint)</text></g><g stroke-linecap="round"><g transform="translate(227.94116199834025 84.8966617468223) rotate(0 37.83037125759577 200.69414471947997)"><path d="M-0.08 1.16 C12.71 67.89, 64.43 332.85, 77.24 399.54 M-1.58 0.73 C10.98 67.66, 62.63 334.2, 76.11 400.66" stroke="#000000" stroke-width="4" fill="none"></path></g></g><mask></mask><g stroke-linecap="round"><g transform="translate(303.9760760458837 485.2437602012351) rotate(0 282.97515763055634 1.677399674582773)"><path d="M-0.57 0.67 C93.35 1.3, 469.82 3.11, 564.16 3.37 M1.33 -0.02 C95.58 0.26, 472.57 0.87, 566.52 1.39" stroke="#000000" stroke-width="4" fill="none"></path></g></g><mask></mask><g transform="translate(128.38866330071104 261.7942168778419) rotate(0 58.71666717529297 19.396661746822332)"><text x="0" y="0" font-family="Virgil, Segoe UI Emoji" font-size="31.034658794915718px" fill="#000000" text-anchor="start" style="white-space: pre;" direction="ltr" dominant-baseline="text-before-edge">humerus</text></g><g transform="translate(464.9429487667348 490.48535075513394) rotate(0 46.49166488647461 19.396661746822303)"><text x="0" y="0" font-family="Virgil, Segoe UI Emoji" font-size="31.034658794915718px" fill="#000000" text-anchor="start" style="white-space: pre;" direction="ltr" dominant-baseline="text-before-edge">radius</text></g><g transform="translate(581.4602781641927 492.3477365859824) rotate(0 30.50000000000003 19.396661746822303)"><text x="0" y="0" font-family="Virgil, Segoe UI Emoji" font-size="31.034658794915718px" fill="#000000" text-anchor="start" style="white-space: pre;" direction="ltr" dominant-baseline="text-before-edge">ulna</text></g><g stroke-linecap="round"><g transform="translate(899.4274061376715 292.1739321061481) rotate(0 3.117484615084493 69.07238351029429)"><path d="M0.66 -0.4 C1.93 22.78, 5.59 116.6, 6.69 139.8 M-0.46 -1.65 C0.78 21.16, 4.75 114.63, 6 138.27" stroke="#0b7285" stroke-width="4" fill="none"></path></g><g transform="translate(899.4274061376715 292.1739321061481) rotate(0 3.117484615084493 69.07238351029429)"><path d="M-6.24 111.42 C-0.93 118.5, -0.01 124.27, 7.83 138.39 M-6.56 109.64 C-2.7 117.79, 1.49 124.52, 6.09 137.95" stroke="#0b7285" stroke-width="4" fill="none"></path></g><g transform="translate(899.4274061376715 292.1739321061481) rotate(0 3.117484615084493 69.07238351029429)"><path d="M14.26 110.45 C15.01 117.86, 11.37 123.84, 7.83 138.39 M13.94 108.67 C12.44 117.2, 11.27 124.19, 6.09 137.95" stroke="#0b7285" stroke-width="4" fill="none"></path></g></g><mask></mask><g transform="translate(852.18260343103 199.0699557214009) rotate(0 51.900001525878906 27.155326445551253)"><text x="51.900001525878906" y="0" font-family="Virgil, Segoe UI Emoji" font-size="43.448522312882005px" fill="#0b7285" text-anchor="middle" style="white-space: pre;" direction="ltr" dominant-baseline="text-before-edge">Load</text></g><g stroke-linecap="round"><g transform="translate(290.0104795881717 416.96751085242056) rotate(0 237.71630777411224 30.864482001653357)"><path d="M-0.61 -1.08 C78.69 9.55, 396.69 52.36, 476.04 62.8 M1.28 0.97 C80.36 11.34, 395.46 50.79, 474.91 61.07" stroke="#e67700" stroke-width="4" fill="none"></path></g></g><mask></mask><g stroke-linecap="round"><g transform="translate(232.5963608175776 114.37958760199223) rotate(0 76.33180643783194 183.84652518393062)"><path d="M-0.32 0.5 C24.67 61.64, 125.43 305.26, 150.89 366.36 M1.72 -0.28 C26.97 61.11, 127.96 307.06, 152.98 367.97" stroke="#e67700" stroke-width="4" fill="none"></path></g></g><mask></mask><g transform="translate(257.704138007596 65.5) rotate(0 78.85832977294922 15.517329397457857)"><text x="78.85832977294922" y="0" font-family="Virgil, Segoe UI Emoji" font-size="24.827727035932575px" fill="#e67700" text-anchor="middle" style="white-space: pre;" direction="ltr" dominant-baseline="text-before-edge">biceps brachii</text></g><g transform="translate(450.42768265716563 389.8121844068693) rotate(0 86.30833435058594 15.517329397457843)"><text x="86.30833435058594" y="0" font-family="Virgil, Segoe UI Emoji" font-size="24.827727035932575px" fill="#e67700" text-anchor="middle" style="white-space: pre;" direction="ltr" dominant-baseline="text-before-edge">brachioradialis</text></g><g stroke-linecap="round"><g transform="translate(389.32138773190195 480.5885613819977) rotate(0 -20.637704051004306 -178.67743263500446)"><path d="M0.96 1.13 C-6.04 -58.66, -34.51 -298.47, -41.49 -358.48 M0 0.68 C-7.16 -58.93, -35.37 -297.2, -42.23 -356.96" stroke="#0b7285" stroke-width="2" fill="none"></path></g><g transform="translate(389.32138773190195 480.5885613819977) rotate(0 -20.637704051004306 -178.67743263500446)"><path d="M-26.89 -329.48 C-33.44 -337.52, -38.82 -347.99, -41.25 -355.35 M-28.84 -329.23 C-33.27 -337.22, -36.22 -346.67, -42.29 -356.11" stroke="#0b7285" stroke-width="2" fill="none"></path></g><g transform="translate(389.32138773190195 480.5885613819977) rotate(0 -20.637704051004306 -178.67743263500446)"><path d="M-47.27 -327.1 C-46.92 -336.11, -45.39 -347.39, -41.25 -355.35 M-49.22 -326.85 C-47.52 -335.71, -44.35 -345.88, -42.29 -356.11" stroke="#0b7285" stroke-width="2" fill="none"></path></g></g><mask></mask><g stroke-linecap="round"><g transform="translate(767.9442250298737 482.14029432174357) rotate(0 -6.575379782853702 -46.541781931543426)"><path d="M-0.01 -0.56 C-2.34 -15.91, -11.07 -77.28, -13.14 -92.86 M-1.48 1.77 C-3.49 -13.91, -8.85 -79.03, -10.81 -94.85" stroke="#0b7285" stroke-width="2" fill="none"></path></g><g transform="translate(767.9442250298737 482.14029432174357) rotate(0 -6.575379782853702 -46.541781931543426)"><path d="M1.29 -69.04 C-2.01 -77.85, -8.71 -88.17, -9.39 -95 M3.1 -67.2 C-1.42 -77.54, -5.58 -84.76, -11.45 -95.83" stroke="#0b7285" stroke-width="2" fill="none"></path></g><g transform="translate(767.9442250298737 482.14029432174357) rotate(0 -6.575379782853702 -46.541781931543426)"><path d="M-19.13 -66.98 C-14.88 -76.56, -14.04 -87.63, -9.39 -95 M-17.32 -65.15 C-15.27 -76.08, -12.87 -83.95, -11.45 -95.83" stroke="#0b7285" stroke-width="2" fill="none"></path></g></g><mask></mask><g transform="translate(391.2927701355011 205.1559645771207) rotate(0 69.40833282470703 27.155326445551253)"><text x="69.40833282470703" y="0" font-family="Virgil, Segoe UI Emoji" font-size="43.448522312882005px" fill="#0b7285" text-anchor="middle" style="white-space: pre;" direction="ltr" dominant-baseline="text-before-edge">Effort</text></g><g transform="translate(631.8113757960979 307.5703386003426) rotate(0 69.40833282470703 27.155326445551253)"><text x="69.40833282470703" y="0" font-family="Virgil, Segoe UI Emoji" font-size="43.448522312882005px" fill="#0b7285" text-anchor="middle" style="white-space: pre;" direction="ltr" dominant-baseline="text-before-edge">Effort</text></g><g stroke-linecap="round"><g transform="translate(299.5380722123441 512) rotate(0 44.82553564198315 -2.169025831297006)"><path d="M-0.05 -1.16 C15.02 -1.73, 74.65 -3.04, 89.7 -3.17" stroke="#0b7285" stroke-width="1.5" fill="none" stroke-dasharray="8 9"></path></g><g transform="translate(299.5380722123441 512) rotate(0 44.82553564198315 -2.169025831297006)"><path d="M25.95 -12.61 C19.17 -9.12, 14.45 -7.2, 0.83 0.64" stroke="#0b7285" stroke-width="1.5" fill="none"></path></g><g transform="translate(299.5380722123441 512) rotate(0 44.82553564198315 -2.169025831297006)"><path d="M26.45 7.9 C19.52 6.43, 14.67 3.37, 0.83 0.64" stroke="#0b7285" stroke-width="1.5" fill="none"></path></g><g transform="translate(299.5380722123441 512) rotate(0 44.82553564198315 -2.169025831297006)"><path d="M59.74 7.05 C66.5 5.31, 75.33 1.97, 90.57 -1.37" stroke="#0b7285" stroke-width="1.5" fill="none"></path></g><g transform="translate(299.5380722123441 512) rotate(0 44.82553564198315 -2.169025831297006)"><path d="M59.4 -13.47 C66.27 -10.23, 75.19 -8.59, 90.57 -1.37" stroke="#0b7285" stroke-width="1.5" fill="none"></path></g></g><mask></mask><g stroke-linecap="round"><g transform="translate(302.5380722123441 542) rotate(0 231.82135455496612 -4.894277231767774)"><path d="M-0.49 1.05 C77 -0.78, 386.56 -8.78, 464.14 -10.84" stroke="#0b7285" stroke-width="1.5" fill="none" stroke-dasharray="8 9"></path></g><g transform="translate(302.5380722123441 542) rotate(0 231.82135455496612 -4.894277231767774)"><path d="M29.18 -11.36 C22.91 -7.58, 15.69 -3.55, -1.47 0.35" stroke="#0b7285" stroke-width="1.5" fill="none"></path></g><g transform="translate(302.5380722123441 542) rotate(0 231.82135455496612 -4.894277231767774)"><path d="M29.7 9.15 C23.29 8.19, 15.94 7.47, -1.47 0.35" stroke="#0b7285" stroke-width="1.5" fill="none"></path></g><g transform="translate(302.5380722123441 542) rotate(0 231.82135455496612 -4.894277231767774)"><path d="M437.98 -1.29 C444.6 -2.36, 450.3 -3.41, 463.16 -11.54" stroke="#0b7285" stroke-width="1.5" fill="none"></path></g><g transform="translate(302.5380722123441 542) rotate(0 231.82135455496612 -4.894277231767774)"><path d="M437.44 -21.8 C444.22 -18.12, 450.04 -14.43, 463.16 -11.54" stroke="#0b7285" stroke-width="1.5" fill="none"></path></g></g><mask></mask><g stroke-linecap="round" transform="translate(872.5380722123441 443) rotate(0 40.5 38)"><path d="M71.83 12.43 C77.48 17.56, 80.63 27.67, 81.43 35.28 C82.23 42.89, 80.76 52.08, 76.64 58.09 C72.53 64.11, 64.19 68.75, 56.74 71.37 C49.29 73.99, 39.63 75.09, 31.96 73.8 C24.3 72.52, 16.07 68.92, 10.77 63.65 C5.47 58.38, 1.22 49.28, 0.16 42.2 C-0.9 35.11, 0.52 27.75, 4.41 21.15 C8.3 14.54, 16.28 5.99, 23.5 2.56 C30.73 -0.87, 38.74 -3.9, 47.76 0.57 C56.78 5.04, 72.55 22.33, 77.63 29.39 C82.71 36.44, 78.54 43.2, 78.26 42.9 M75.19 18.38 C80.43 23.21, 82.65 29.5, 82.07 36.5 C81.49 43.51, 76.38 54.37, 71.72 60.41 C67.05 66.44, 61.14 70.66, 54.07 72.71 C47 74.76, 37.58 74.78, 29.29 72.69 C21.01 70.6, 9.24 65.89, 4.36 60.16 C-0.52 54.42, -0.5 45.4, 0.01 38.28 C0.52 31.16, 2.79 23.34, 7.41 17.43 C12.03 11.51, 20.48 5.19, 27.72 2.79 C34.96 0.4, 42.96 1.3, 50.86 3.06 C58.77 4.83, 71.19 11.01, 75.14 13.37 C79.09 15.73, 75.83 16.58, 74.56 17.22" stroke="#000000" stroke-width="2" fill="none"></path></g><g stroke-linecap="round" transform="translate(175.5380722123441 10) rotate(0 40.5 38)"><path d="M72.32 15.09 C78.04 20.2, 82.62 26.74, 82.83 34.1 C83.04 41.47, 78.07 52.95, 73.58 59.28 C69.1 65.6, 63.02 69.39, 55.93 72.05 C48.84 74.72, 38.85 76.54, 31.04 75.27 C23.23 73.99, 14 70.46, 9.07 64.41 C4.14 58.36, 1.68 46.77, 1.47 38.97 C1.25 31.17, 3.64 23.76, 7.76 17.63 C11.89 11.51, 19.41 5.26, 26.19 2.23 C32.97 -0.8, 39.5 -6.03, 48.44 -0.56 C57.38 4.91, 75.32 25.36, 79.84 35.05 C84.36 44.74, 76.32 57.88, 75.54 57.58 M26.77 0.68 C34.13 -1.47, 47.39 -0.67, 55.03 2.29 C62.67 5.24, 68.44 11.86, 72.61 18.4 C76.78 24.94, 80.52 34.43, 80.08 41.5 C79.63 48.58, 74.42 54.82, 69.95 60.84 C65.48 66.85, 60.44 75.23, 53.25 77.6 C46.07 79.97, 34.4 78.6, 26.85 75.07 C19.3 71.53, 12.57 63.01, 7.95 56.39 C3.33 49.77, -1.38 42.06, -0.87 35.36 C-0.37 28.65, 5.86 22.22, 10.97 16.16 C16.08 10.1, 26.34 1.61, 29.77 -0.99 C33.2 -3.59, 31.82 0, 31.55 0.55" stroke="#000000" stroke-width="2" fill="none"></path></g></svg>