<svg version="1.1" xmlns="http://www.w3.org/2000/svg" viewBox="0 0 628 354" width="628" height="354" filter="invert(93%) hue-rotate(180deg)">
  <!-- svg-source:excalidraw -->
  
  <defs>
    <style class="style-fonts">
      @font-face {
        font-family: "Virgil";
        src: url("https://excalidraw.com/Virgil.woff2");
      }
      @font-face {
        font-family: "Cascadia";
        src: url("https://excalidraw.com/Cascadia.woff2");
      }
    </style>
  </defs>
  <rect x="0" y="0" width="628" height="354" fill="#ffffff"></rect><g stroke-linecap="round" transform="translate(198 10) rotate(0 92 34.5)"><path d="M17.25 0 M17.25 0 C54.6 2.3, 88.54 0.93, 166.75 0 M17.25 0 C69.26 -0.13, 118.92 -0.18, 166.75 0 M166.75 0 C177.28 -1.56, 185.55 6.82, 184 17.25 M166.75 0 C178.85 -2.03, 184.82 8.01, 184 17.25 M184 17.25 C185.36 28.07, 185.6 41.04, 184 51.75 M184 17.25 C182.94 24.84, 184.15 32.25, 184 51.75 M184 51.75 C183.11 62.66, 177.03 69.25, 166.75 69 M184 51.75 C185.16 65.5, 177.1 67.25, 166.75 69 M166.75 69 C111.24 70.54, 51.07 68.66, 17.25 69 M166.75 69 C130.42 70.43, 93.92 70.07, 17.25 69 M17.25 69 C5.44 69.23, -0.83 63.19, 0 51.75 M17.25 69 C7.04 68.03, 1.1 63.24, 0 51.75 M0 51.75 C-1.45 44.96, 0.49 35.91, 0 17.25 M0 51.75 C-0.37 38.64, -0.54 27.68, 0 17.25 M0 17.25 C-1.23 5.93, 6.72 -1.47, 17.25 0 M0 17.25 C-1.58 5.84, 4.74 1.55, 17.25 0" stroke="#000000" stroke-width="1" fill="none"></path></g><g transform="translate(263 32) rotate(0 27 12.5)"><text x="27" y="18" font-family="Virgil, Segoe UI Emoji" font-size="20px" fill="#000000" text-anchor="middle" style="white-space: pre;" direction="ltr">Fever</text></g><g stroke-linecap="round" transform="translate(10 128) rotate(0 92 34.5)"><path d="M17.25 0 M17.25 0 C71.63 -0.63, 127.82 -0.85, 166.75 0 M17.25 0 C56.9 -0.25, 98 0.78, 166.75 0 M166.75 0 C178.39 -0.89, 184.9 5.67, 184 17.25 M166.75 0 C177.39 -0.87, 182.74 7.76, 184 17.25 M184 17.25 C186.12 28.88, 183.38 45.15, 184 51.75 M184 17.25 C183.2 23.75, 183.7 31.91, 184 51.75 M184 51.75 C185.87 63.27, 179.72 68.91, 166.75 69 M184 51.75 C184.24 62.54, 178.53 69.37, 166.75 69 M166.75 69 C116.12 72.29, 68.42 70.47, 17.25 69 M166.75 69 C111.66 68.79, 56.56 68.27, 17.25 69 M17.25 69 C4.39 67.05, 0.81 64.9, 0 51.75 M17.25 69 C7.46 68.98, -0.58 65.43, 0 51.75 M0 51.75 C-0.62 38.16, -0.78 27.39, 0 17.25 M0 51.75 C-0.23 43.28, -0.41 34.31, 0 17.25 M0 17.25 C-1.91 4.58, 3.92 1.82, 17.25 0 M0 17.25 C-1.51 5.75, 7.32 -1.24, 17.25 0" stroke="#000000" stroke-width="1" fill="none"></path></g><g transform="translate(50.5 150) rotate(0 51.5 12.5)"><text x="51.5" y="18" font-family="Virgil, Segoe UI Emoji" font-size="20px" fill="#000000" text-anchor="middle" style="white-space: pre;" direction="ltr">with focus</text></g><g stroke-linecap="round" transform="translate(321 127) rotate(0 92 34.5)"><path d="M17.25 0 M17.25 0 C67.51 -0.94, 118.21 -0.13, 166.75 0 M17.25 0 C67.54 -0.01, 117.84 -0.81, 166.75 0 M166.75 0 C176.65 -1.31, 183.63 7.49, 184 17.25 M166.75 0 C177.15 -0.71, 182.08 7.72, 184 17.25 M184 17.25 C183.02 27.38, 184.6 36.54, 184 51.75 M184 17.25 C183.5 29.09, 184.69 40.64, 184 51.75 M184 51.75 C185.68 63.13, 178.81 70.24, 166.75 69 M184 51.75 C184.03 63.5, 178.51 67.64, 166.75 69 M166.75 69 C128.27 70.33, 92.84 67.91, 17.25 69 M166.75 69 C130.04 68.91, 93.11 67.3, 17.25 69 M17.25 69 C3.79 70.87, -1.34 63.02, 0 51.75 M17.25 69 C3.54 69.7, 0.79 63.89, 0 51.75 M0 51.75 C-0.11 39.38, 1.82 26.92, 0 17.25 M0 51.75 C-0.77 41, 0.06 28.97, 0 17.25 M0 17.25 C-0.71 4.89, 5.74 0.9, 17.25 0 M0 17.25 C0.93 8.04, 5.81 -1.18, 17.25 0" stroke="#000000" stroke-width="1" fill="none"></path></g><g transform="translate(344.5 149) rotate(0 68.5 12.5)"><text x="68.5" y="18" font-family="Virgil, Segoe UI Emoji" font-size="20px" fill="#000000" text-anchor="middle" style="white-space: pre;" direction="ltr">without focus</text></g><g stroke-linecap="round" transform="translate(189 275) rotate(0 92 34.5)"><path d="M17.25 0 M17.25 0 C54.08 1.96, 95.05 -0.37, 166.75 0 M17.25 0 C74.22 -2.24, 130.87 -1.84, 166.75 0 M166.75 0 C177.67 0.14, 184.13 7.27, 184 17.25 M166.75 0 C179.7 -0.82, 185.07 3.57, 184 17.25 M184 17.25 C185.31 25.76, 183.83 38.56, 184 51.75 M184 17.25 C184.3 26.76, 183.17 38.2, 184 51.75 M184 51.75 C184.17 63.75, 179.44 67.88, 166.75 69 M184 51.75 C183.83 61.93, 176.79 67.83, 166.75 69 M166.75 69 C121.14 69.7, 76 68.29, 17.25 69 M166.75 69 C122.52 66.88, 77.6 67.82, 17.25 69 M17.25 69 C5.73 70.47, -1.67 64.38, 0 51.75 M17.25 69 C7.32 68.88, 2.15 63.83, 0 51.75 M0 51.75 C1.62 38.74, -0.22 26.06, 0 17.25 M0 51.75 C0.52 42.85, 0.48 32.05, 0 17.25 M0 17.25 C-1.04 3.97, 5.69 -1.46, 17.25 0 M0 17.25 C1.96 6.38, 6.92 1.58, 17.25 0" stroke="#000000" stroke-width="1" fill="none"></path></g><g transform="translate(198 284.5) rotate(0 83 25)"><text x="83" y="18" font-family="Virgil, Segoe UI Emoji" font-size="20px" fill="#000000" text-anchor="middle" style="white-space: pre;" direction="ltr">without localising</text><text x="83" y="43" font-family="Virgil, Segoe UI Emoji" font-size="20px" fill="#000000" text-anchor="middle" style="white-space: pre;" direction="ltr">signs</text></g><g stroke-linecap="round" transform="translate(434 274) rotate(0 92 34.5)"><path d="M17.25 0 M17.25 0 C57.38 -2.6, 96.93 0.54, 166.75 0 M17.25 0 C72.22 -0.83, 128.11 -1.31, 166.75 0 M166.75 0 C177.82 0.81, 182.34 7.39, 184 17.25 M166.75 0 C178.59 -1.65, 186.06 7.62, 184 17.25 M184 17.25 C185.62 28.2, 184.56 44.76, 184 51.75 M184 17.25 C183.67 30.42, 183.65 41.97, 184 51.75 M184 51.75 C182.78 63.08, 178.67 69.77, 166.75 69 M184 51.75 C185.93 65.54, 179.78 67.59, 166.75 69 M166.75 69 C129.59 67.77, 91.82 68.24, 17.25 69 M166.75 69 C126.22 68.64, 85.58 68.57, 17.25 69 M17.25 69 C5.29 68.15, -0.6 62.46, 0 51.75 M17.25 69 C7.06 71.1, 0.2 64.65, 0 51.75 M0 51.75 C-1.09 42.97, 0.11 30.29, 0 17.25 M0 51.75 C0.61 41.11, -0.37 32.88, 0 17.25 M0 17.25 C1.36 4.28, 4.18 -0.25, 17.25 0 M0 17.25 C-2.12 4.72, 4.49 -0.52, 17.25 0" stroke="#000000" stroke-width="1" fill="none"></path></g><g transform="translate(504 296) rotate(0 22 12.5)"><text x="22" y="18" font-family="Virgil, Segoe UI Emoji" font-size="20px" fill="#000000" text-anchor="middle" style="white-space: pre;" direction="ltr">PUO</text></g><g stroke-linecap="round"><g transform="translate(287 84) rotate(0 -89.53815172558188 18.06805443865713)"><path d="M0.06 -0.94 C-29.8 5.19, -148.96 29.46, -178.81 35.7 M-1.37 1.18 C-31.32 7.59, -149.48 31.55, -179.13 37.08" stroke="#000000" stroke-width="1" fill="none"></path></g><g transform="translate(287 84) rotate(0 -89.53815172558188 18.06805443865713)"><path d="M-155.01 23.57 C-162.55 28.32, -169.73 32.58, -180.75 36.43 M-153.71 21.15 C-162.53 27.03, -173.62 33.31, -178.4 37.01" stroke="#000000" stroke-width="1" fill="none"></path></g><g transform="translate(287 84) rotate(0 -89.53815172558188 18.06805443865713)"><path d="M-151.06 43.7 C-159.71 41.83, -168.2 39.46, -180.75 36.43 M-149.76 41.29 C-159.97 39.63, -172.54 38.37, -178.4 37.01" stroke="#000000" stroke-width="1" fill="none"></path></g></g><mask></mask><g stroke-linecap="round"><g transform="translate(287 84) rotate(0 68.52271835786291 17.597852400271208)"><path d="M0.81 -0.04 C23.35 5.89, 112.53 29.18, 135.06 34.85 M-0.23 -1.11 C22.7 5.08, 114.71 30.33, 137.27 36.3" stroke="#000000" stroke-width="1" fill="none"></path></g><g transform="translate(287 84) rotate(0 68.52271835786291 17.597852400271208)"><path d="M107.31 37.28 C115.66 37.81, 122.71 38.89, 136.75 35.31 M106.71 38.77 C115.75 38.42, 121.61 38.03, 137.48 35.96" stroke="#000000" stroke-width="1" fill="none"></path></g><g transform="translate(287 84) rotate(0 68.52271835786291 17.597852400271208)"><path d="M112.67 17.47 C119.37 23.69, 124.89 30.41, 136.75 35.31 M112.07 18.96 C119.62 23.53, 124.15 28.06, 137.48 35.96" stroke="#000000" stroke-width="1" fill="none"></path></g></g><mask></mask><g stroke-linecap="round"><g transform="translate(415 202) rotate(0 -67.70848467797038 32.12231664249208)"><path d="M0.35 -0.81 C-22.15 9.7, -113.36 52.82, -135.77 63.69 M-0.92 1.37 C-22.98 12, -111.21 54.91, -133.46 65.06" stroke="#000000" stroke-width="1" fill="none"></path></g><g transform="translate(415 202) rotate(0 -67.70848467797038 32.12231664249208)"><path d="M-113.73 42.44 C-117.81 50.33, -121.65 55.28, -131.47 64.4 M-111.41 42.93 C-119.58 52.57, -127.8 59.07, -133.64 64.71" stroke="#000000" stroke-width="1" fill="none"></path></g><g transform="translate(415 202) rotate(0 -67.70848467797038 32.12231664249208)"><path d="M-104.95 60.99 C-111.22 64.48, -117.15 65.01, -131.47 64.4 M-102.63 61.48 C-114.24 64.1, -125.78 63.58, -133.64 64.71" stroke="#000000" stroke-width="1" fill="none"></path></g></g><mask></mask><g stroke-linecap="round"><g transform="translate(416 201) rotate(0 56.24893591387661 33.30423136204482)"><path d="M1.15 -0.67 C19.75 10.36, 93.74 56.11, 112.2 67.28 M0.3 1.59 C18.71 12.76, 92.89 54.34, 111.35 65.3" stroke="#000000" stroke-width="1" fill="none"></path></g><g transform="translate(416 201) rotate(0 56.24893591387661 33.30423136204482)"><path d="M80.68 60.47 C92.65 61.51, 101.46 64.58, 111.94 63.31 M82.73 59.3 C93.19 62.43, 103.88 64.36, 111.8 64.73" stroke="#000000" stroke-width="1" fill="none"></path></g><g transform="translate(416 201) rotate(0 56.24893591387661 33.30423136204482)"><path d="M90.92 42.68 C99.46 50.04, 104.7 59.33, 111.94 63.31 M92.97 41.52 C99.85 51.08, 106.79 59.51, 111.8 64.73" stroke="#000000" stroke-width="1" fill="none"></path></g></g><mask></mask></svg>