<svg version="1.1" xmlns="http://www.w3.org/2000/svg" viewBox="0 0 773 390.4224924012158" width="773" height="390.4224924012158" filter="invert(93%) hue-rotate(180deg)">
  <!-- svg-source:excalidraw -->
  
  <defs>
    <style class="style-fonts">
      @font-face {
        font-family: "Virgil";
        src: url("https://excalidraw.com/Virgil.woff2");
      }
      @font-face {
        font-family: "Cascadia";
        src: url("https://excalidraw.com/Cascadia.woff2");
      }
    </style>
  </defs>
  <rect x="0" y="0" width="773" height="390.4224924012158" fill="#ffffff"></rect><g stroke-linecap="round" transform="translate(245 10) rotate(0 164.5 42.5)"><path d="M21.25 0 M21.25 0 C126.87 -2.73, 233.42 -2.51, 307.75 0 M21.25 0 C89.05 -0.74, 157.75 -0.44, 307.75 0 M307.75 0 C320.24 1.88, 329.44 5.9, 329 21.25 M307.75 0 C319.88 0.25, 330.22 6.66, 329 21.25 M329 21.25 C327.71 36.63, 328.74 51, 329 63.75 M329 21.25 C329.18 30.39, 329.18 40.39, 329 63.75 M329 63.75 C328.17 78.5, 320.23 86.72, 307.75 85 M329 63.75 C329.41 77.32, 322.14 87.07, 307.75 85 M307.75 85 C236.38 86.67, 168.26 87.06, 21.25 85 M307.75 85 C238.45 84.64, 168.53 83.98, 21.25 85 M21.25 85 C7.08 85.23, -0.73 76.08, 0 63.75 M21.25 85 C8.65 86.73, 1.2 78.18, 0 63.75 M0 63.75 C1.04 56, 1.72 43.69, 0 21.25 M0 63.75 C0.88 50.82, -0.24 35.48, 0 21.25 M0 21.25 C0.07 7.61, 7.74 -1.77, 21.25 0 M0 21.25 C-1.43 5.52, 6.43 1.61, 21.25 0" stroke="#000000" stroke-width="1" fill="none"></path></g><g stroke-linecap="round" transform="translate(10 321) rotate(0 115 29.71124620060789)"><path d="M14.86 0 M14.86 0 C86.7 0.67, 160.11 0.36, 215.14 0 M14.86 0 C84.45 -1.49, 153.47 -0.7, 215.14 0 M215.14 0 C225.6 -0.33, 230.33 5.88, 230 14.86 M215.14 0 C225.48 0.28, 231.79 5.28, 230 14.86 M230 14.86 C231.59 21.92, 230.57 29.48, 230 44.57 M230 14.86 C229.35 21.72, 230.57 27.54, 230 44.57 M230 44.57 C231.96 53.86, 224.67 59.66, 215.14 59.42 M230 44.57 C231.51 53.86, 223.82 61.48, 215.14 59.42 M215.14 59.42 C135.27 60.86, 56.59 60.06, 14.86 59.42 M215.14 59.42 C168.83 60.44, 120.34 60.58, 14.86 59.42 M14.86 59.42 C5.28 58.17, -1.48 56.47, 0 44.57 M14.86 59.42 C4.96 57.28, -0.76 54.8, 0 44.57 M0 44.57 C-1.49 35.47, 0.5 28.06, 0 14.86 M0 44.57 C-0.01 36.72, 0.05 30.36, 0 14.86 M0 14.86 C-0.1 5.21, 4.2 -0.72, 14.86 0 M0 14.86 C0.64 2.66, 5.7 0.38, 14.86 0" stroke="#000000" stroke-width="1" fill="none"></path></g><g stroke-linecap="round" transform="translate(269 319) rotate(0 115 29.71124620060789)"><path d="M14.86 0 M14.86 0 C55.13 2.44, 98.21 -0.06, 215.14 0 M14.86 0 C68.6 -1.6, 120.66 -1.56, 215.14 0 M215.14 0 C226.69 -1.7, 231.97 6.21, 230 14.86 M215.14 0 C222.93 -1.66, 230.58 6.36, 230 14.86 M230 14.86 C228.61 26.1, 230.79 34.26, 230 44.57 M230 14.86 C230.71 24.3, 230.69 35.63, 230 44.57 M230 44.57 C230.14 55.31, 226.51 58.05, 215.14 59.42 M230 44.57 C231.17 55.12, 222.75 57.97, 215.14 59.42 M215.14 59.42 C154.02 58.16, 95.71 59.77, 14.86 59.42 M215.14 59.42 C174.31 58.52, 134.38 57.1, 14.86 59.42 M14.86 59.42 C5.08 57.5, 1.77 52.48, 0 44.57 M14.86 59.42 C7.06 61.07, -1.42 55.7, 0 44.57 M0 44.57 C0.32 37.42, -0.32 29.56, 0 14.86 M0 44.57 C0.44 35.65, 0.24 25.87, 0 14.86 M0 14.86 C1.12 4.76, 5.8 1.21, 14.86 0 M0 14.86 C-1.04 3.6, 4.9 1.9, 14.86 0" stroke="#000000" stroke-width="1" fill="none"></path></g><g stroke-linecap="round" transform="translate(533 318) rotate(0 115 29.71124620060789)"><path d="M14.86 0 M14.86 0 C69.47 1.95, 121.72 1.73, 215.14 0 M14.86 0 C77.99 0.12, 140.19 0.67, 215.14 0 M215.14 0 C223.13 1.19, 230.08 4.64, 230 14.86 M215.14 0 C223.12 -1.83, 230.94 2.84, 230 14.86 M230 14.86 C228.61 25.62, 231.55 37.47, 230 44.57 M230 14.86 C230.36 23.19, 229.84 30.66, 230 44.57 M230 44.57 C231.65 52.56, 225.44 60.5, 215.14 59.42 M230 44.57 C229.62 52.99, 224.33 61.52, 215.14 59.42 M215.14 59.42 C148.42 59.49, 81.41 59.26, 14.86 59.42 M215.14 59.42 C173.46 58.91, 133.04 59.12, 14.86 59.42 M14.86 59.42 C4.78 61.12, 0.62 52.51, 0 44.57 M14.86 59.42 C6.13 59.35, -0.91 54.36, 0 44.57 M0 44.57 C-0.47 34.35, 1.46 19.65, 0 14.86 M0 44.57 C-0.34 37.42, -0.64 28.28, 0 14.86 M0 14.86 C0.8 4.61, 3.32 -0.8, 14.86 0 M0 14.86 C-0.52 4.51, 3.99 -1.5, 14.86 0" stroke="#000000" stroke-width="1" fill="none"></path></g><g transform="translate(338 34) rotate(0 68 19.318181818181813)"><text x="0" y="26.636363636363633" font-family="Virgil, Segoe UI Emoji" font-size="30.9090909090909px" fill="#000000" text-anchor="start" style="white-space: pre;" direction="ltr">Helminths</text></g><g transform="translate(75.01519756838911 337.7781155015198) rotate(0 58 13.5)"><text x="0" y="19" font-family="Virgil, Segoe UI Emoji" font-size="21.60817905498756px" fill="#000000" text-anchor="start" style="white-space: pre;" direction="ltr">Nematodes</text></g><g transform="translate(334.0151975683891 335.7781155015198) rotate(0 49.5 13.5)"><text x="0" y="19" font-family="Virgil, Segoe UI Emoji" font-size="21.60817905498756px" fill="#000000" text-anchor="start" style="white-space: pre;" direction="ltr">Cestodes</text></g><g transform="translate(598.0151975683891 334.7781155015198) rotate(0 64.5 13.5)"><text x="0" y="19" font-family="Virgil, Segoe UI Emoji" font-size="21.60817905498756px" fill="#000000" text-anchor="start" style="white-space: pre;" direction="ltr">Trematodes</text></g><g stroke-linecap="round"><g transform="translate(410.59080871977585 101.39817629179333) rotate(0 -146.411195339399 106.35882125638953)"><path d="M-1.16 -0.33 C-50.07 35.4, -244.7 178.59, -293.26 214.27 M0.43 -1.55 C-48.12 33.81, -242.03 176.2, -290.99 212.28" stroke="#000000" stroke-width="1" fill="none"></path></g><g transform="translate(410.59080871977585 101.39817629179333) rotate(0 -146.411195339399 106.35882125638953)"><path d="M-274.91 185.9 C-279.27 194.98, -285.44 204.2, -290.75 212.52 M-273.41 186.76 C-281.04 195, -286.45 203.9, -291.18 212.49" stroke="#000000" stroke-width="1" fill="none"></path></g><g transform="translate(410.59080871977585 101.39817629179333) rotate(0 -146.411195339399 106.35882125638953)"><path d="M-262.75 202.43 C-270.99 206.11, -281.04 210.04, -290.75 212.52 M-261.26 203.29 C-272.98 205.85, -282.55 209.1, -291.18 212.49" stroke="#000000" stroke-width="1" fill="none"></path></g></g><mask></mask><g stroke-linecap="round"><g transform="translate(409.85193605909035 99) rotate(0 -9.970224888166854 108.74277149856556)"><path d="M0.94 -0.72 C-2.51 35.54, -16.56 180.47, -20.28 216.78 M-0.02 1.52 C-3.61 38.03, -17.16 182.03, -20.88 218.2" stroke="#000000" stroke-width="1" fill="none"></path></g><g transform="translate(409.85193605909035 99) rotate(0 -9.970224888166854 108.74277149856556)"><path d="M-29.54 190.24 C-26.4 198.12, -23.28 210.46, -21.06 219.89 M-28.45 188.4 C-27.03 195.98, -24.23 200.69, -20.9 217.59" stroke="#000000" stroke-width="1" fill="none"></path></g><g transform="translate(409.85193605909035 99) rotate(0 -9.970224888166854 108.74277149856556)"><path d="M-9.12 192.24 C-12.81 199.61, -16.53 211.28, -21.06 219.89 M-8.03 190.4 C-10.93 197.63, -12.44 201.91, -20.9 217.59" stroke="#000000" stroke-width="1" fill="none"></path></g></g><mask></mask><g stroke-linecap="round"><g transform="translate(409 100) rotate(0 124.40355608197058 104.6492791883368)"><path d="M-0.73 1.06 C41 35.58, 207.85 172.98, 249.54 207.12 M1.09 0.57 C42.72 35.31, 207.22 174.37, 248.43 208.73" stroke="#000000" stroke-width="1" fill="none"></path></g><g transform="translate(409 100) rotate(0 124.40355608197058 104.6492791883368)"><path d="M222.02 197.96 C226.88 200.21, 231.35 201.52, 246.76 207.72 M220.2 198.26 C227.51 202.03, 236.97 204.81, 248.63 208.16" stroke="#000000" stroke-width="1" fill="none"></path></g><g transform="translate(409 100) rotate(0 124.40355608197058 104.6492791883368)"><path d="M235.22 182.25 C237.07 188, 238.53 192.89, 246.76 207.72 M233.4 182.55 C236.9 190.76, 242.61 198, 248.63 208.16" stroke="#000000" stroke-width="1" fill="none"></path></g></g><mask></mask></svg>